<svg width="109" height="111" viewBox="0 0 109 111" fill="none" xmlns="http://www.w3.org/2000/svg">
<circle cx="54.5" cy="45.5" r="45.5" fill="#6270F2" fill-opacity="0.38"/>
<g filter="url(#filter0_d_61_655)">
<circle cx="54.7314" cy="45.7314" r="33.2592" fill="white"/>
</g>
<path d="M69.3089 39.2093C69.1775 34.6026 65.3417 32.7734 60.356 31.9912L60.8122 25.6196L56.9513 25.3472L56.5201 31.551C55.5009 31.4856 54.4552 31.4248 53.4143 31.3905L53.8409 25.1603L49.98 24.8879L49.5456 31.2284C48.6942 31.1879 47.8692 31.1427 47.0706 31.0929L47.066 31.0664L41.7183 30.7021L41.4396 34.8364C41.4396 34.8364 44.2983 34.986 44.2502 35.0217C45.8209 35.126 46.262 36.0832 46.3489 36.8849L45.8305 44.1389C45.9409 44.1467 46.0776 44.1499 46.25 44.2012C46.1133 44.198 45.9766 44.1949 45.8352 44.1654L45.1191 54.3139C45.0134 54.7955 44.659 55.5661 43.5823 55.4836C43.6181 55.5318 40.7718 55.2983 40.7718 55.2983L39.6727 59.8769L44.7205 60.2396C45.6605 60.319 46.5694 60.3766 47.4829 60.4606L47.0361 66.885L50.897 67.1574L51.3531 60.7859C52.4034 60.873 53.4537 60.9602 54.4465 61.0302L54.0121 67.3707L57.873 67.6432L58.3198 61.2188C64.8685 61.2896 69.5391 59.9758 70.5094 53.8948C71.3102 49.0148 69.1494 46.6452 65.5139 45.4887C67.8726 44.5009 69.411 42.5684 69.3089 39.2093ZM62.9261 52.5903C62.6007 57.3864 54.3974 56.2728 51.7764 56.0814L52.3711 47.5611C54.9921 47.7525 63.2934 47.5688 62.9261 52.5903ZM61.9785 40.4201C61.6625 44.8061 54.8404 43.8031 52.6606 43.6427L53.2055 35.921C55.3852 36.0813 62.2929 35.871 61.9785 40.4201Z" fill="#7B78D5"/>
<defs>
<filter id="filter0_d_61_655" x="0.685139" y="2.07865" width="108.093" height="108.093" filterUnits="userSpaceOnUse" color-interpolation-filters="sRGB">
<feFlood flood-opacity="0" result="BackgroundImageFix"/>
<feColorMatrix in="SourceAlpha" type="matrix" values="0 0 0 0 0 0 0 0 0 0 0 0 0 0 0 0 0 0 127 0" result="hardAlpha"/>
<feOffset dy="10.3935"/>
<feGaussianBlur stdDeviation="10.3935"/>
<feColorMatrix type="matrix" values="0 0 0 0 0.109804 0 0 0 0 0.172549 0 0 0 0 0.25098 0 0 0 0.08 0"/>
<feBlend mode="normal" in2="BackgroundImageFix" result="effect1_dropShadow_61_655"/>
<feBlend mode="normal" in="SourceGraphic" in2="effect1_dropShadow_61_655" result="shape"/>
</filter>
</defs>
</svg>
