<svg width="109" height="111" viewBox="0 0 109 111" fill="none" xmlns="http://www.w3.org/2000/svg">
<circle cx="54.5" cy="45.5" r="45.5" fill="#6270F2" fill-opacity="0.38"/>
<g filter="url(#filter0_d_61_664)">
<circle cx="54.7314" cy="45.7314" r="33.2592" fill="white"/>
</g>
<path fill-rule="evenodd" clip-rule="evenodd" d="M71.447 21.1919C71.616 21.3067 71.7555 21.467 71.8523 21.6576C71.9491 21.8482 71.9999 22.0627 72 22.281V60.7187C72 61.0586 71.8771 61.3844 71.6583 61.6247C71.4395 61.865 71.1427 62 70.8333 62H63.8333C63.5239 62 63.2272 61.865 63.0084 61.6247C62.7896 61.3844 62.6667 61.0586 62.6667 60.7187V56.875H60.3333V60.7187C60.3333 61.0586 60.2104 61.3844 59.9916 61.6247C59.7728 61.865 59.4761 62 59.1667 62H38.1667C37.8572 62 37.5605 61.865 37.3417 61.6247C37.1229 61.3844 37 61.0586 37 60.7187V46.6249C37.0002 46.3561 37.0773 46.0942 37.2206 45.8762C37.3638 45.6582 37.5658 45.4952 37.798 45.4103L51 40.5773V32.531C51 32.2933 51.0602 32.0602 51.174 31.8579C51.2877 31.6556 51.4505 31.4921 51.644 31.3856L70.3107 21.1355C70.4887 21.0376 70.6866 20.9914 70.8855 21.0013C71.0844 21.0112 71.2777 21.0768 71.447 21.1919ZM51 43.2782L39.3333 47.5474V59.4375H51V43.2782ZM53.3333 59.4375H58V55.5937C58 55.2539 58.1229 54.928 58.3417 54.6877C58.5605 54.4474 58.8572 54.3124 59.1667 54.3124H63.8333C64.1428 54.3124 64.4395 54.4474 64.6583 54.6877C64.8771 54.928 65 55.2539 65 55.5937V59.4375H69.6667V24.354L53.3333 33.3229V59.4375Z" fill="#6270F2"/>
<path d="M42 49.3636H44.2727V51.9091H42V49.3636ZM46.5455 49.3636H48.8182V51.9091H46.5455V49.3636ZM42 54.4545H44.2727V57H42V54.4545ZM46.5455 54.4545H48.8182V57H46.5455V54.4545ZM55.6364 44.2727H57.9091V46.8182H55.6364V44.2727ZM60.1818 44.2727H62.4545V46.8182H60.1818V44.2727ZM55.6364 49.3636H57.9091V51.9091H55.6364V49.3636ZM60.1818 49.3636H62.4545V51.9091H60.1818V49.3636ZM64.7273 44.2727H67V46.8182H64.7273V44.2727ZM64.7273 49.3636H67V51.9091H64.7273V49.3636ZM55.6364 39.1818H57.9091V41.7273H55.6364V39.1818ZM60.1818 39.1818H62.4545V41.7273H60.1818V39.1818ZM64.7273 39.1818H67V41.7273H64.7273V39.1818ZM55.6364 34.0909H57.9091V36.6364H55.6364V34.0909ZM60.1818 34.0909H62.4545V36.6364H60.1818V34.0909ZM64.7273 34.0909H67V36.6364H64.7273V34.0909ZM64.7273 29H67V31.5455H64.7273V29Z" fill="#828DF7"/>
<defs>
<filter id="filter0_d_61_664" x="0.685139" y="2.07865" width="108.093" height="108.093" filterUnits="userSpaceOnUse" color-interpolation-filters="sRGB">
<feFlood flood-opacity="0" result="BackgroundImageFix"/>
<feColorMatrix in="SourceAlpha" type="matrix" values="0 0 0 0 0 0 0 0 0 0 0 0 0 0 0 0 0 0 127 0" result="hardAlpha"/>
<feOffset dy="10.3935"/>
<feGaussianBlur stdDeviation="10.3935"/>
<feColorMatrix type="matrix" values="0 0 0 0 0.109804 0 0 0 0 0.172549 0 0 0 0 0.25098 0 0 0 0.08 0"/>
<feBlend mode="normal" in2="BackgroundImageFix" result="effect1_dropShadow_61_664"/>
<feBlend mode="normal" in="SourceGraphic" in2="effect1_dropShadow_61_664" result="shape"/>
</filter>
</defs>
</svg>
