<svg width="109" height="111" viewBox="0 0 109 111" fill="none" xmlns="http://www.w3.org/2000/svg">
<circle cx="54.5" cy="45.5" r="45.5" fill="#6270F2" fill-opacity="0.38"/>
<g filter="url(#filter0_d_61_643)">
<circle cx="54.7314" cy="45.7314" r="33.2592" fill="white"/>
</g>
<path d="M58.0578 45.3749L50.875 38.0718V44.9062C50.875 45.0305 50.9244 45.1497 51.0123 45.2376C51.1002 45.3255 51.2194 45.3749 51.3438 45.3749H58.0578Z" fill="#808CFC"/>
<path d="M48.375 46.9374V37.2499H38.6875C38.4389 37.2499 38.2004 37.3487 38.0246 37.5245C37.8488 37.7003 37.75 37.9388 37.75 38.1874V63.8124C37.75 64.061 37.8488 64.2995 38.0246 64.4753C38.2004 64.6511 38.4389 64.7499 38.6875 64.7499H58.0625C58.3111 64.7499 58.5496 64.6511 58.7254 64.4753C58.9012 64.2995 59 64.061 59 63.8124V47.8749H49.3125C49.0639 47.8749 48.8254 47.7761 48.6496 47.6003C48.4738 47.4245 48.375 47.186 48.375 46.9374ZM62.5938 35.3749H69.3078L62.125 28.0718V34.9062C62.125 35.0305 62.1744 35.1497 62.2623 35.2376C62.3502 35.3255 62.4694 35.3749 62.5938 35.3749Z" fill="#808CFC"/>
<path d="M60.5625 37.875C60.3139 37.875 60.0754 37.7762 59.8996 37.6004C59.7238 37.4246 59.625 37.1861 59.625 36.9375V27.25H47.4375C47.1889 27.25 46.9504 27.3488 46.7746 27.5246C46.5988 27.7004 46.5 27.9389 46.5 28.1875V34.75H49.7906C50.2106 34.7517 50.6262 34.8363 51.0134 34.9991C51.4006 35.1619 51.7518 35.3995 52.0469 35.6984L60.575 44.3703C61.17 44.974 61.5022 45.7884 61.4992 46.6359V57.25H69.3125C69.5611 57.25 69.7996 57.1512 69.9754 56.9754C70.1512 56.7996 70.25 56.5611 70.25 56.3125V37.875H60.5625Z" fill="#808CFC"/>
<defs>
<filter id="filter0_d_61_643" x="0.685139" y="2.07865" width="108.093" height="108.093" filterUnits="userSpaceOnUse" color-interpolation-filters="sRGB">
<feFlood flood-opacity="0" result="BackgroundImageFix"/>
<feColorMatrix in="SourceAlpha" type="matrix" values="0 0 0 0 0 0 0 0 0 0 0 0 0 0 0 0 0 0 127 0" result="hardAlpha"/>
<feOffset dy="10.3935"/>
<feGaussianBlur stdDeviation="10.3935"/>
<feColorMatrix type="matrix" values="0 0 0 0 0.109804 0 0 0 0 0.172549 0 0 0 0 0.25098 0 0 0 0.08 0"/>
<feBlend mode="normal" in2="BackgroundImageFix" result="effect1_dropShadow_61_643"/>
<feBlend mode="normal" in="SourceGraphic" in2="effect1_dropShadow_61_643" result="shape"/>
</filter>
</defs>
</svg>
