<svg xmlns="http://www.w3.org/2000/svg" xmlns:xlink="http://www.w3.org/1999/xlink" width="150" height="128" viewBox="0 0 150 128">
  <defs>
    <clipPath id="clip-path">
      <rect id="Rectangle_5" data-name="Rectangle 5" width="150" height="128" fill="#fff"/>
    </clipPath>
    <radialGradient id="radial-gradient" cx="0.177" cy="0.615" r="0.662" gradientTransform="translate(-4.427) scale(0.538 1)" gradientUnits="objectBoundingBox">
      <stop offset="0" stop-color="#e95e00" stop-opacity="0.6"/>
      <stop offset="0.173" stop-color="#db5800" stop-opacity="0.498"/>
      <stop offset="0.502" stop-color="#b54a00" stop-opacity="0.298"/>
      <stop offset="0.949" stop-color="#783300" stop-opacity="0.031"/>
      <stop offset="1" stop-color="#713000" stop-opacity="0"/>
    </radialGradient>
  </defs>
  <g id="Group_8" data-name="Group 8" clip-path="url(#clip-path)">
    <path id="Path_17" data-name="Path 17" d="M149.88,76.694l-41.564,24.168L62.987,74.541l41.238-24.5Z" fill="#d4d4d4"/>
    <g id="Group_5" data-name="Group 5" opacity="0.24">
      <path id="Path_18" data-name="Path 18" d="M63.251,75.6l-.258,51.829L17.585,101.189l.09-51.8Z" fill="#cfeeff" fill-rule="evenodd"/>
    </g>
    <path id="Path_19" data-name="Path 19" d="M63.176,23.268l-.09,51.462-45.5,26.458.09-51.8Z" fill="#c5ebff" fill-rule="evenodd" opacity="0.6"/>
    <path id="Path_20" data-name="Path 20" d="M108.49,49.446l-.165,51.416L63.086,74.731l.09-51.462Z" fill="#fff" fill-rule="evenodd"/>
    <path id="Path_21" data-name="Path 21" d="M87.41,96.927c-1.444-.841-1.739-2.095-.885-3.1-.086.043-.173.088-.255.135-1.809,1.042-1.806,2.748.008,3.805a7.253,7.253,0,0,0,6.569.024,3.364,3.364,0,0,0,.879-.707A7.319,7.319,0,0,1,87.41,96.927Z" fill="#fff"/>
    <path id="Path_22" data-name="Path 22" d="M106.192,89.859a15.123,15.123,0,0,0-11.922-.732l-.028.011-.1.039-6.6,2.559,2.414-.107.58.213c-1.239,1.96-.5,4.252,2.227,5.825a11.45,11.45,0,0,0,2.775,1.115l.729,4.674,9.977-5.79C109.941,95.514,109.92,92.011,106.192,89.859Z" fill="#fff"/>
    <path id="Path_23" data-name="Path 23" d="M94.058,95.784l-.011,3.781A2.273,2.273,0,0,0,92.7,97.688a7.1,7.1,0,0,0-6.439,0,2.259,2.259,0,0,0-1.321,1.851l.011-3.781a2.258,2.258,0,0,1,1.322-1.851,7.1,7.1,0,0,1,6.439,0A2.275,2.275,0,0,1,94.058,95.784Z" fill="#ec6600"/>
    <path id="Path_24" data-name="Path 24" d="M99.033,95.8l-.011,3.781c0,1.4-.925,2.806-2.765,3.876a14.866,14.866,0,0,1-13.479,0c-1.875-1.083-2.815-2.508-2.809-3.931l.011-3.781c0,1.423.933,2.847,2.809,3.931a14.873,14.873,0,0,0,13.479,0C98.109,98.606,99.029,97.2,99.033,95.8Z" fill="#f97800"/>
    <path id="Path_25" data-name="Path 25" d="M87.41,96.83c-1.444-.841-1.739-2.1-.885-3.1-.086.043-.173.089-.255.135-1.809,1.042-1.806,2.749.008,3.805a7.251,7.251,0,0,0,6.569.025,3.365,3.365,0,0,0,.879-.708A7.312,7.312,0,0,1,87.41,96.83Z" fill="url(#radial-gradient)"/>
    <path id="Path_26" data-name="Path 26" d="M96.224,91.866c3.729,2.153,3.749,5.655.043,7.808a14.866,14.866,0,0,1-13.479,0c-3.729-2.153-3.747-5.656-.043-7.808A14.876,14.876,0,0,1,96.224,91.866ZM86.3,97.635a7.1,7.1,0,0,0,6.439,0c1.77-1.029,1.761-2.7-.021-3.73a7.1,7.1,0,0,0-6.439,0C84.505,94.934,84.515,96.607,86.3,97.635Z" fill="#ffa431"/>
    <path id="Path_27" data-name="Path 27" d="M78.26,67.018l-15.127,8.79L47.91,67.02l15.125-8.79Z" fill="#00b3ff"/>
    <path id="Path_28" data-name="Path 28" d="M78.259,67.02l-.048,34.933-15.125,8.79.046-34.932Z" fill="#008cd6"/>
    <path id="Path_29" data-name="Path 29" d="M63.132,75.811l-.046,34.932-15.225-8.788.048-34.935Z" fill="#46d6ff"/>
    <path id="Path_30" data-name="Path 30" d="M97.4,101.4l-10.271,7.845-13.913-7.155Z" fill="#fff"/>
    <path id="Path_31" data-name="Path 31" d="M75.129,96.657l-12,12.58,12,6.925,12-6.925Z" fill="#2c55f2"/>
    <path id="Path_32" data-name="Path 32" d="M63.132,109.237l12,6.925v-19.5Z" fill="#8c8cff"/>
    <path id="Path_33" data-name="Path 33" d="M50.9,88.637,40.012,97.855l-10.962-6.33,10.891-9.216Z" fill="#ff775b"/>
    <path id="Path_34" data-name="Path 34" d="M50.9,88.637l-.032,14.6-10.893,6.327.034-11.712Z" fill="#f65f4d"/>
    <path id="Path_35" data-name="Path 35" d="M40.011,97.855l-.034,11.712L29.015,103.24l.034-11.712Z" fill="#ff997d"/>
    <path id="Path_36" data-name="Path 36" d="M71.784,109.4l.072-.038-12.072,6.956a6.062,6.062,0,0,1-3.787.365,14.1,14.1,0,0,1-4.771-1.689,7.15,7.15,0,0,1-2.94-2.762A1.564,1.564,0,0,1,48.91,110l12.072-6.956a6.057,6.057,0,0,1,3.789-.365,14.1,14.1,0,0,1,4.769,1.689,7.165,7.165,0,0,1,2.94,2.762A1.57,1.57,0,0,1,71.784,109.4Z" fill="#fff"/>
    <path id="Path_37" data-name="Path 37" d="M63.767,97.183c.008-2.837-3.957-5.149-8.857-5.163s-8.878,2.275-8.886,5.112,3.957,5.149,8.857,5.163S63.759,100.02,63.767,97.183Z" fill="#ffd4e1"/>
    <path id="Path_38" data-name="Path 38" d="M48.612,115.654c-1.75-1.01-2.622-2.335-2.62-3.659l.03-14.864c0,1.324.87,2.65,2.62,3.659a13.822,13.822,0,0,0,12.545,0c1.716-1,2.573-2.3,2.577-3.608l-.03,14.863c0,1.307-.863,2.612-2.577,3.609A13.822,13.822,0,0,1,48.612,115.654Z" fill="#ffaec2"/>
    <g id="Group_6" data-name="Group 6" opacity="0.51">
      <path id="Path_39" data-name="Path 39" d="M58.447,101.872a10.629,10.629,0,0,0,2.741-1.082c1.716-1,2.573-2.3,2.577-3.609l-.03,14.864c0,1.307-.863,2.612-2.577,3.609a10.59,10.59,0,0,1-2.741,1.081Z" fill="#ff7994" opacity="0.51"/>
    </g>
    <path id="Path_40" data-name="Path 40" d="M56.914,44.571l-1.823,5.467A5.1,5.1,0,0,1,52.921,48c-1.064-1.775-1.14-4.891-.164-7.863Z" fill="#fff"/>
    <path id="Path_41" data-name="Path 41" d="M55.292,42.84a46.863,46.863,0,0,0-.2,7.2L56.055,46l-.3-2.691Z" fill="#c38c71" opacity="0.14"/>
    <path id="Path_42" data-name="Path 42" d="M50.881,40.3a12.075,12.075,0,0,1,.836-1.275l1.039,1.11a12.941,12.941,0,0,0-.637,5.126,4.641,4.641,0,0,1-.633-.512A3.664,3.664,0,0,1,50.881,40.3Z" fill="#fff"/>
    <path id="Path_43" data-name="Path 43" d="M55.756,43.306l3.618,3.888c-.285,2.661-.327,3.856-.327,3.856s2.844.457,4.852.646a1.626,1.626,0,0,1-.069,3.242,23.47,23.47,0,0,1-5.7-.336,3.754,3.754,0,0,1-3.054-3.714A47.819,47.819,0,0,1,55.756,43.306Z" fill="#fff"/>
    <path id="Path_44" data-name="Path 44" d="M59.374,47.194l-.74-.79-1.958,5.1c-.751,2.026-.2,2.339-.2,2.339L57.759,52.5Z" fill="#c38c71" opacity="0.14"/>
    <path id="Path_45" data-name="Path 45" d="M68.813,54.538c0,.464,0,.9.009,1.272a1.677,1.677,0,0,0,3.312.359l.2-.866c.1-.452.217-.9.335-1.352a15.721,15.721,0,0,0-3.863-.959C68.809,53.51,68.811,54.04,68.813,54.538Z" fill="#c7987d"/>
    <g id="Group_7" data-name="Group 7">
      <path id="Path_46" data-name="Path 46" d="M78.52,58.257c3.779,2.143,2.57,6.405-2.7,9.519s-12.6,3.9-16.377,1.761-2.57-6.405,2.7-9.519S74.741,56.114,78.52,58.257Z" fill="#fff"/>
    </g>
    <path id="Path_47" data-name="Path 47" d="M63.665,70.657a9.181,9.181,0,1,0-9.181-9.181A9.181,9.181,0,0,0,63.665,70.657Z" fill="#ffcd00"/>
    <path id="Path_48" data-name="Path 48" d="M68.594,53.729s.009.007.013.012c2.99,2.606,2.851,7.486-.489,10.972-3.475,3.625-8.939,4.24-12.009,1.3a6.115,6.115,0,0,1-1.049-1.323A9.181,9.181,0,1,0,68.594,53.729Z" fill="#ffbe00"/>
    <path id="Path_49" data-name="Path 49" d="M61.8,58.8c.981-1.1,1.091-2.6.247-3.356s-2.324-.468-3.3.634-1.091,2.6-.247,3.356S60.821,59.9,61.8,58.8Z" fill="#fce2a1"/>
    <path id="Path_50" data-name="Path 50" d="M65.931,48.594c-.069.041-.135.082-.206.13Q65.828,48.656,65.931,48.594Z" fill="#c7987d"/>
    <path id="Path_51" data-name="Path 51" d="M65.454,48.914l-.055.039C65.417,48.942,65.435,48.928,65.454,48.914Z" fill="#c7987d"/>
    <path id="Path_52" data-name="Path 52" d="M62.755,51.427A27.12,27.12,0,0,1,64.9,49.348,21.43,21.43,0,0,0,62.755,51.427Z" fill="#c7987d"/>
    <path id="Path_53" data-name="Path 53" d="M65.138,49.154c-.059.046-.119.094-.181.144C65.019,49.248,65.079,49.2,65.138,49.154Z" fill="#c7987d"/>
    <path id="Path_54" data-name="Path 54" d="M80.585,12.6C70.744,23.434,65.369,28.2,65.369,28.2c-.016.011-5.361,3.664-9.457,6.8a21.15,21.15,0,0,0-4.2,4.032L59.372,47.2a61.7,61.7,0,0,0-2.764,5.672,8.13,8.13,0,0,0-.694,3.516c.032,1.128.105,2.6.27,3.938a1.454,1.454,0,0,0,2.881.043c.139-.9.308-1.951.466-2.9a10.532,10.532,0,0,1,2.613-5.384c.19-.208.393-.425.608-.653l.338-5.745,5.032-1.208,3.593-3.415,6.931-.37c.277-.425.562-.868.866-1.348,5.8-9.133-.916-.847,15.863-18.195l-.457-.71A17.018,17.018,0,0,0,80.585,12.6Z" fill="#c7987d"/>
    <path id="Path_55" data-name="Path 55" d="M65.991,48.558c-.019.012-.039.026-.06.037C65.951,48.583,65.97,48.569,65.991,48.558Z" fill="#c7987d"/>
    <path id="Path_56" data-name="Path 56" d="M65.725,48.724c-.089.059-.181.123-.274.19C65.547,48.845,65.636,48.784,65.725,48.724Z" fill="#c7987d"/>
    <path id="Path_57" data-name="Path 57" d="M65.4,48.953q-.13.1-.26.2C65.227,49.085,65.314,49.014,65.4,48.953Z" fill="#c7987d"/>
    <path id="Path_58" data-name="Path 58" d="M64.958,49.3c-.021.016-.039.032-.06.051Z" fill="#c7987d"/>
    <path id="Path_59" data-name="Path 59" d="M78.653,40.683l-6.933.37-3.593,3.415-5.033,1.208-.338,5.745A21.96,21.96,0,0,1,64.9,49.343c.021-.016.039-.032.059-.05.062-.05.121-.1.18-.144.087-.069.174-.137.26-.2l.055-.039c.091-.066.183-.13.274-.19.071-.048.137-.089.206-.13.021-.011.039-.025.059-.037,2.613-1.576,2.878.87,2.839,1.59-.021.381-.025,1.567-.021,2.846a15.754,15.754,0,0,1,3.863.959,38.462,38.462,0,0,1,3.347-8.406Z" fill="#c7987d"/>
    <path id="Path_60" data-name="Path 60" d="M80.252,12.6C70.411,23.434,65.371,28.2,65.371,28.2c-.016.011-5.361,3.664-9.457,6.8a21.144,21.144,0,0,0-4.2,4.032,12.065,12.065,0,0,0-.836,1.275c-.007.009-.009.021-.016.032a2.445,2.445,0,0,1,.71-.79,1.7,1.7,0,0,1,1.183-.2c.589-3.07,7.97-7.253,13.067-10.945l16.7-15.639A17.8,17.8,0,0,0,80.252,12.6Z" fill="#fff"/>
    <path id="Path_61" data-name="Path 61" d="M108.49,49.446l-.169,51.416L62.993,127.428,63.251,75.6Z" fill="#bee9ff" fill-rule="evenodd" opacity="0.303"/>
    <path id="Path_62" data-name="Path 62" d="M45.739.617.5,26.77,17.675,49.393l45.5-26.124Z" fill="#fff" fill-rule="evenodd" opacity="0.523"/>
  </g>
</svg>
