<svg width="273" height="273" viewBox="0 0 273 273" fill="none" xmlns="http://www.w3.org/2000/svg">
<path d="M211.009 135.474L158.819 166.119L208.13 194.663L262.621 166.12L211.009 135.474Z" fill="#1877F2"/>
<path d="M70.8881 135.474L18.6984 166.119L68.0092 194.663L122.501 166.12L70.8881 135.474Z" fill="#1877F2"/>
<path d="M143.545 0.540547L86.1729 38.9733L132.88 64.9216L192.563 31.1865L143.545 0.540547Z" fill="#1877F2"/>
<path d="M151.043 239.268V176.992L205.423 210.534V273.001L151.043 239.268Z" fill="#1877F2"/>
<path d="M273.001 176.992L210.725 210.725V239.268L273.001 205.535V176.992Z" fill="#1877F2"/>
<path d="M10.9219 239.268V176.992L64.2965 210.534V273.001L10.9219 239.268Z" fill="#1877F2"/>
<path d="M132.879 176.992L70.6032 210.725V239.268L132.879 205.535V176.992Z" fill="#1877F2"/>
<path d="M86.1719 106.438V41.5669L132.879 67.5153V134.981L86.1719 106.438Z" fill="#1877F2"/>
<path d="M202.94 44.1617L148.448 75.2998V98.6534L202.94 67.5153V44.1617Z" fill="#1877F2"/>
<path d="M273.001 210.231L210.725 244.456V272.999L273.001 238.775V210.231Z" fill="#1877F2"/>
<path d="M132.88 210.231L70.6035 244.456V272.999L132.88 238.775V210.231Z" fill="#1877F2"/>
<path d="M202.938 85.6812L148.447 116.819V132.88L202.938 101.25V85.6812Z" fill="#1877F2"/>
<path d="M206.269 199.577L262.736 168.617C265.249 167.239 268.404 168.159 269.782 170.672C271.16 173.185 270.239 176.34 267.726 177.718L211.303 208.654C211.279 208.667 211.248 208.658 211.235 208.634L206.269 199.577Z" fill="#3275AF"/>
<path d="M66.1484 199.577L122.616 168.617C125.129 167.239 128.283 168.159 129.661 170.672C131.039 173.185 130.119 176.34 127.606 177.718L71.1823 208.654C71.1581 208.667 71.1277 208.658 71.1144 208.634L66.1484 199.577Z" fill="#3275AF"/>
<path d="M135.428 67.5244L194.785 33.0826C197.264 31.6441 200.439 32.4877 201.878 34.9667C203.316 37.4458 202.473 40.6216 199.994 42.0601L140.68 76.4768C140.656 76.4907 140.626 76.4825 140.612 76.4587L135.428 67.5244Z" fill="#3275AF"/>
<path d="M135.428 109.751L195.155 75.0946C197.634 73.6561 200.81 74.4997 202.249 76.9787C203.687 79.4578 202.843 82.6336 200.364 84.0721L140.68 118.704C140.656 118.718 140.626 118.71 140.612 118.686L135.428 109.751Z" fill="#3275AF"/>
<path d="M213.311 206.506C211.831 208.96 208.641 209.75 206.187 208.269L155.488 177.689C153.033 176.209 152.244 173.019 153.724 170.565C155.204 168.11 158.394 167.321 160.848 168.801L211.548 199.382C214.002 200.862 214.792 204.052 213.311 206.506Z" fill="#3275AF"/>
<path d="M73.1878 206.508C71.7082 208.961 68.5203 209.75 66.0673 208.271L4.48361 171.125C2.07786 169.674 1.27965 166.562 2.68992 164.133C4.13317 161.646 7.33346 160.823 9.79707 162.305L71.4205 199.385C73.8769 200.863 74.6684 204.053 73.1878 206.508Z" fill="#3275AF"/>
<path d="M145.854 67.5156L145.854 129.792C145.854 132.658 143.53 134.981 140.664 134.981C137.798 134.981 135.474 132.658 135.474 129.792V67.5156H145.854Z" fill="#3275AF"/>
<circle cx="140.664" cy="155.74" r="15.569" fill="#3275AF"/>
<path d="M140.13 165.198V147.016H141.295V165.198H140.13ZM143.219 153.018C143.162 152.445 142.919 152 142.488 151.682C142.057 151.365 141.472 151.207 140.733 151.207C140.232 151.207 139.808 151.278 139.462 151.42C139.117 151.557 138.851 151.749 138.667 151.995C138.487 152.241 138.397 152.521 138.397 152.833C138.387 153.093 138.442 153.321 138.56 153.515C138.683 153.709 138.851 153.877 139.064 154.019C139.278 154.156 139.524 154.277 139.803 154.381C140.082 154.481 140.381 154.566 140.698 154.637L142.005 154.949C142.639 155.092 143.222 155.281 143.752 155.518C144.282 155.754 144.742 156.046 145.13 156.391C145.518 156.737 145.819 157.144 146.032 157.613C146.25 158.082 146.361 158.619 146.366 159.225C146.361 160.115 146.134 160.887 145.684 161.54C145.239 162.189 144.595 162.693 143.752 163.053C142.914 163.408 141.903 163.586 140.719 163.586C139.545 163.586 138.522 163.406 137.651 163.046C136.785 162.686 136.108 162.154 135.62 161.448C135.137 160.738 134.884 159.86 134.86 158.813H137.836C137.869 159.301 138.009 159.708 138.255 160.035C138.506 160.357 138.84 160.601 139.256 160.766C139.678 160.927 140.153 161.008 140.684 161.008C141.205 161.008 141.657 160.932 142.04 160.78C142.429 160.629 142.729 160.418 142.942 160.148C143.155 159.878 143.262 159.568 143.262 159.218C143.262 158.891 143.165 158.617 142.971 158.394C142.781 158.172 142.502 157.982 142.133 157.826C141.768 157.67 141.321 157.528 140.79 157.4L139.206 157.002C137.98 156.704 137.012 156.237 136.302 155.603C135.591 154.968 135.239 154.114 135.243 153.039C135.239 152.158 135.473 151.389 135.947 150.731C136.425 150.073 137.081 149.559 137.914 149.19C138.747 148.82 139.694 148.636 140.755 148.636C141.834 148.636 142.777 148.82 143.581 149.19C144.391 149.559 145.021 150.073 145.471 150.731C145.921 151.389 146.153 152.151 146.167 153.018H143.219Z" fill="white"/>
<path d="M73.1971 119.415L83.5764 124.605V29.5904C83.5764 29.5186 83.6346 29.4604 83.7064 29.4604H97.5982C99.2718 29.4604 100.205 27.5273 99.1644 26.2167L79.953 2.02453C79.1523 1.01621 77.6213 1.01621 76.8205 2.02453L57.6091 26.2167C56.5683 27.5273 57.5017 29.4604 59.1754 29.4604H73.0671C73.1389 29.4604 73.1971 29.5186 73.1971 29.5904V119.415Z" fill="#3275AF"/>
<path d="M83.5772 124.602L13.5166 166.12L3.13721 163.525L73.1979 119.413L83.5772 124.602Z" fill="#3275AF"/>
</svg>
