<svg width="150" height="128" viewBox="0 0 150 128" fill="none" xmlns="http://www.w3.org/2000/svg">
<g clip-path="url(#clip0_61_845)">
<path d="M149.88 76.694L108.316 100.862L62.9873 74.5407L104.225 50.042L149.88 76.694Z" fill="url(#paint0_linear_61_845)"/>
<g opacity="0.24">
<path fill-rule="evenodd" clip-rule="evenodd" d="M63.2511 75.5993L62.9927 127.428L17.585 101.189L17.6747 49.3926L63.2511 75.5993Z" fill="#CFEEFF"/>
</g>
<path opacity="0.6" fill-rule="evenodd" clip-rule="evenodd" d="M63.1758 23.2683L63.086 74.7308L17.585 101.189L17.6747 49.3925L63.1758 23.2683Z" fill="#C5EBFF"/>
<path fill-rule="evenodd" clip-rule="evenodd" d="M108.49 49.4463L108.325 100.862L63.0859 74.7308L63.1756 23.2683L108.49 49.4463Z" fill="white"/>
<path d="M87.4098 96.9274C85.9658 96.0868 85.6711 94.8327 86.5251 93.8301C86.4391 93.8734 86.3525 93.9181 86.2698 93.9654C84.4605 95.0074 84.4638 96.7134 86.2778 97.7708C88.0911 98.8254 91.0365 98.8367 92.8465 97.7947C93.2145 97.5827 93.5051 97.3427 93.7251 97.0874C91.9025 97.9901 89.1405 97.9341 87.4098 96.9274Z" fill="url(#paint1_linear_61_845)"/>
<path d="M106.192 89.8593C102.95 87.9873 97.9535 87.7433 94.2702 89.1273L94.2422 89.1386C94.2082 89.1513 94.1742 89.1646 94.1388 89.178L87.5342 91.7366L89.9482 91.6293L90.5282 91.842C89.2895 93.802 90.0309 96.094 92.7549 97.6673C93.5829 98.144 94.5235 98.516 95.5295 98.7826L96.2582 103.457L106.235 97.6673C109.941 95.514 109.92 92.0106 106.192 89.8593Z" fill="url(#paint2_linear_61_845)"/>
<path d="M94.058 95.7841L94.0467 99.5654C94.0487 98.8861 93.6014 98.2041 92.704 97.6881C90.9227 96.6594 88.0334 96.6594 86.2647 97.6881C85.386 98.1988 84.9447 98.8688 84.9434 99.5394L84.954 95.7581C84.956 95.0881 85.3954 94.4174 86.276 93.9068C88.0467 92.8781 90.9354 92.8781 92.7154 93.9068C93.6127 94.4234 94.0594 95.1048 94.058 95.7841Z" fill="#EC6600"/>
<path d="M99.0325 95.7974L99.0211 99.5787C99.0178 100.983 98.0958 102.385 96.2558 103.455C92.5518 105.609 86.5051 105.609 82.7765 103.455C80.9011 102.372 79.9618 100.947 79.9678 99.5241L79.9791 95.7434C79.9751 97.1661 80.9118 98.5907 82.7878 99.6741C86.5158 101.827 92.5631 101.827 96.2671 99.6741C98.1091 98.6061 99.0291 97.2034 99.0325 95.7974Z" fill="#F97800"/>
<path d="M87.4098 96.8299C85.9658 95.9886 85.6711 94.7346 86.5251 93.7319C86.4391 93.7753 86.3525 93.8206 86.2698 93.8673C84.4605 94.9093 84.4638 96.6159 86.2778 97.6726C88.0911 98.7279 91.0365 98.7393 92.8465 97.6973C93.2145 97.4853 93.5051 97.2446 93.7251 96.9893C91.9025 97.8926 89.1405 97.8379 87.4098 96.8299Z" fill="url(#paint3_radial_61_845)"/>
<path d="M96.224 91.866C99.9526 94.0193 99.9733 97.5206 96.2673 99.674C92.5633 101.828 86.516 101.828 82.788 99.674C79.0593 97.5206 79.0406 94.018 82.7446 91.866C86.4486 89.7126 92.4953 89.7146 96.224 91.866ZM86.2966 97.6353C88.078 98.664 90.9653 98.664 92.736 97.6353C94.506 96.6066 94.4966 94.934 92.7153 93.9053C90.9333 92.876 88.0446 92.876 86.276 93.9053C84.5053 94.934 84.5146 96.6066 86.2966 97.6353Z" fill="#FFA431"/>
<path d="M78.26 67.0179L63.1328 75.8079L47.9097 67.0199L63.0345 58.2297L78.26 67.0179Z" fill="#00B3FF"/>
<path d="M78.2595 67.02L78.2115 101.953L63.0869 110.743L63.1326 75.8107L78.2595 67.02Z" fill="#008CD6"/>
<path d="M63.1324 75.8107L63.0867 110.743L47.8613 101.955L47.9093 67.02L63.1324 75.8107Z" fill="#46D6FF"/>
<path d="M97.3954 101.398L87.1241 109.243L73.2114 102.088L97.3954 101.398Z" fill="url(#paint4_linear_61_845)"/>
<path d="M75.1293 96.6572L63.1323 109.237L75.1293 116.162L87.128 109.237L75.1293 96.6572Z" fill="#2C55F2"/>
<path d="M63.1323 109.237L75.1293 116.162V96.6572L63.1323 109.237Z" fill="#8C8CFF"/>
<path d="M50.9032 88.6373L40.0124 97.8553L29.0508 91.5253L39.9416 82.3093L50.9032 88.6373Z" fill="#FF775B"/>
<path d="M50.9017 88.6372L50.8695 103.24L39.9766 109.567L40.0109 97.8552L50.9017 88.6372Z" fill="#F65F4D"/>
<path d="M40.011 97.8554L39.9767 109.567L29.0151 103.24L29.0495 91.5281L40.011 97.8554Z" fill="#FF997D"/>
<path d="M71.7835 109.4C71.8069 109.387 71.8322 109.375 71.8555 109.362L59.7834 116.318C58.9816 116.78 57.6579 116.939 55.9969 116.683C54.3232 116.426 52.622 115.8 51.2262 114.994C49.8304 114.188 48.74 113.204 48.286 112.232C47.8278 111.252 48.0994 110.473 48.9097 110.005L60.9819 103.049C61.7732 102.589 63.1011 102.427 64.7705 102.684C66.4442 102.941 68.1435 103.567 69.5395 104.373C70.9328 105.179 72.0255 106.163 72.4795 107.135C72.9522 108.14 72.6488 108.936 71.7835 109.4Z" fill="url(#paint5_linear_61_845)"/>
<path d="M63.7668 97.1828C63.7748 94.3454 59.8096 92.0334 54.9102 92.0201C50.0108 92.0061 46.0324 94.2947 46.0244 97.1321C46.0164 99.9701 49.9816 102.281 54.881 102.295C59.7804 102.309 63.7588 100.02 63.7668 97.1828Z" fill="#FFD4E1"/>
<path d="M48.6125 115.654C46.8624 114.644 45.9905 113.319 45.9927 111.995L46.0224 97.1306C46.0181 98.4546 46.8921 99.7806 48.6421 100.79C52.1168 102.797 57.734 102.797 61.1874 100.79C62.9035 99.7933 63.7605 98.4886 63.7648 97.1819L63.7351 112.045C63.7309 113.352 62.8717 114.657 61.1577 115.654C57.7043 117.661 52.0871 117.661 48.6125 115.654Z" fill="#FFAEC2"/>
<g opacity="0.51">
<path opacity="0.51" d="M58.4467 101.872C59.4416 101.621 60.3749 101.263 61.1874 100.79C62.9035 99.7927 63.7605 98.4887 63.7647 97.1814L63.7351 112.045C63.7308 113.352 62.8717 114.657 61.1577 115.654C60.3453 116.127 59.4119 116.485 58.417 116.735L58.4467 101.872Z" fill="#FF7994"/>
</g>
<path d="M56.9143 44.5713L55.0913 50.0379C54.5842 49.8003 53.659 49.2292 52.9211 47.9957C51.8566 46.2207 51.7813 43.1048 52.7567 40.1328L56.9143 44.5713Z" fill="url(#paint6_linear_61_845)"/>
<path opacity="0.14" d="M55.2921 42.8398C54.8764 45.5719 55.0911 50.0379 55.0911 50.0379L56.0551 45.9991L55.7558 43.3081L55.2921 42.8398Z" fill="#C38C71"/>
<path d="M50.881 40.2974C51.1094 39.8931 51.3836 39.4704 51.7171 39.0227L52.7565 40.1329C52.1785 41.8942 51.973 43.7057 52.1192 45.2591C51.8838 45.0992 51.6714 44.9278 51.4864 44.7474C50.2825 43.5915 50.0564 41.748 50.881 40.2974Z" fill="url(#paint7_linear_61_845)"/>
<path d="M55.7562 43.3059L59.3746 47.194C59.0891 49.8552 59.0479 51.05 59.0479 51.05C59.0479 51.05 61.892 51.5068 63.9 51.6964C64.7338 51.7741 65.3711 52.4777 65.3711 53.3138C65.3711 54.1773 64.6949 54.89 63.8315 54.938C61.4557 55.0682 59.5483 54.874 58.1319 54.6022C56.3501 54.2618 55.064 52.7016 55.0777 50.8878C55.0891 49.0352 55.2513 46.1842 55.7562 43.3059Z" fill="url(#paint8_linear_61_845)"/>
<path opacity="0.14" d="M59.3744 47.194L58.6343 46.4036L56.6765 51.5023C55.925 53.5286 56.4801 53.8415 56.4801 53.8415L57.7593 52.4983L59.3744 47.194Z" fill="#C38C71"/>
<path d="M68.8133 54.5382C68.816 55.002 68.818 55.4383 68.8226 55.8106C68.8273 56.5234 69.282 57.1516 69.956 57.3823C70.8993 57.7067 71.9133 57.1402 72.1346 56.1693L72.334 55.3035C72.4366 54.8512 72.5506 54.4012 72.6693 53.9512C71.2306 53.3778 69.8093 53.1128 68.8066 52.9917C68.8086 53.5103 68.8113 54.0402 68.8133 54.5382Z" fill="#C7987D"/>
<g style="mix-blend-mode:multiply">
<path d="M78.5198 58.2572C82.2985 60.3999 81.0898 64.6626 75.8245 67.7761C70.5565 70.8921 63.226 71.6801 59.4476 69.5374C55.6692 67.3947 56.8776 63.1321 62.1432 60.0185C67.4112 56.9025 74.7412 56.1145 78.5198 58.2572Z" fill="url(#paint9_linear_61_845)"/>
</g>
<path d="M63.6648 70.6567C68.7355 70.6567 72.8455 66.5463 72.8455 61.4759C72.8455 56.4053 68.7355 52.2949 63.6648 52.2949C58.5943 52.2949 54.4839 56.4053 54.4839 61.4759C54.4839 66.5463 58.5943 70.6567 63.6648 70.6567Z" fill="#FFCD00"/>
<path d="M68.5945 53.7295C68.5985 53.7341 68.6032 53.7364 68.6079 53.741C71.5979 56.3474 71.4585 61.2268 68.1192 64.7128C64.6445 68.338 59.1803 68.9527 56.1101 66.0104C55.6897 65.6083 55.3425 65.1651 55.0615 64.6877C56.3637 68.1734 59.724 70.6547 63.6623 70.6547C68.7312 70.6547 72.8432 66.5449 72.8432 61.4736C72.8432 58.2183 71.1505 55.3606 68.5945 53.7295Z" fill="#FFBE00"/>
<path d="M61.8018 58.7982C62.7824 57.6965 62.8928 56.194 62.0484 55.4424C61.204 54.6908 59.7245 54.9747 58.7439 56.0764C57.7633 57.1781 57.6529 58.6805 58.4973 59.4321C59.3417 60.1837 60.8212 59.8999 61.8018 58.7982Z" fill="#FCE2A1"/>
<path d="M65.9307 48.5942C65.8622 48.6353 65.796 48.6764 65.7251 48.7244C65.7936 48.6787 65.8622 48.6353 65.9307 48.5942Z" fill="#C7987D"/>
<path d="M65.4536 48.9141C65.4352 48.9279 65.4168 48.9394 65.3984 48.9532C65.4168 48.9417 65.4352 48.9279 65.4536 48.9141Z" fill="#C7987D"/>
<path d="M62.7554 51.4266C63.4544 50.6911 64.1899 49.9418 64.9004 49.3479C64.2836 49.855 63.5754 50.5312 62.7554 51.4266Z" fill="#C7987D"/>
<path d="M65.138 49.1538C65.0786 49.1995 65.0192 49.2475 64.9575 49.2977C65.0192 49.2475 65.0786 49.2018 65.138 49.1538Z" fill="#C7987D"/>
<path d="M80.5852 12.6018C70.7438 23.4343 65.3686 28.1971 65.3686 28.1971C65.3526 28.2085 60.0072 31.8612 55.9112 34.9931C53.8462 36.5716 52.5738 37.8783 51.7148 39.025L59.3721 47.1962C58.4172 48.8433 57.4806 50.8992 56.608 52.8683C56.1168 53.974 55.8816 55.1756 55.9135 56.3841C55.9455 57.5125 56.0186 58.9814 56.1831 60.3223C56.2744 61.051 56.8935 61.597 57.6268 61.597C58.3441 61.597 58.954 61.0739 59.0637 60.3657C59.203 59.4679 59.3721 58.4149 59.5297 57.4645C59.861 55.4543 60.7701 53.5857 62.143 52.0803C62.3326 51.8723 62.536 51.6553 62.7507 51.4269L63.0888 45.6817L68.1212 44.4733L71.7145 41.0581L78.6452 40.6881C78.9218 40.2631 79.2072 39.82 79.5112 39.3403C85.3065 30.2073 78.5952 38.4929 95.3738 21.1454L94.9172 20.4349C91.7878 15.5509 86.3852 12.6018 80.5852 12.6018Z" fill="#C7987D"/>
<path d="M65.9909 48.5576C65.9724 48.5692 65.9515 48.5831 65.9307 48.5947C65.9515 48.5831 65.9701 48.5692 65.9909 48.5576Z" fill="#C7987D"/>
<path d="M65.7253 48.7244C65.6362 48.7838 65.5448 48.8477 65.4512 48.914C65.5471 48.8454 65.6362 48.7838 65.7253 48.7244Z" fill="#C7987D"/>
<path d="M65.3987 48.9529C65.3119 49.0168 65.225 49.0831 65.1382 49.1516C65.2273 49.0853 65.3141 49.0145 65.3987 48.9529Z" fill="#C7987D"/>
<path d="M64.9582 49.2979C64.9373 49.3141 64.9188 49.3303 64.8979 49.3489C64.9188 49.3303 64.9397 49.3141 64.9582 49.2979Z" fill="#C7987D"/>
<path d="M78.6526 40.6833L71.7193 41.0534L68.126 44.4686L63.0934 45.677L62.7554 51.4222C63.5754 50.5291 64.2836 49.8529 64.9004 49.3435C64.9209 49.3275 64.9392 49.3115 64.9598 49.2932C65.0214 49.243 65.0808 49.1949 65.1402 49.1493C65.227 49.0807 65.3138 49.0122 65.4006 48.9506C65.4189 48.9368 65.4372 48.9254 65.4555 48.9117C65.5468 48.8455 65.6382 48.7815 65.7296 48.7221C65.8004 48.6741 65.8666 48.633 65.9352 48.5919C65.9558 48.5805 65.974 48.5667 65.9946 48.5553C68.608 46.9791 68.8726 49.4257 68.834 50.1453C68.8133 50.5268 68.8086 51.7124 68.8133 52.9916C69.8166 53.1127 71.2346 53.3777 72.6766 53.9511C73.458 51.0293 74.5793 48.2058 76.0233 45.5446L78.6526 40.6833Z" fill="#C7987D"/>
<path d="M80.252 12.6018C70.4106 23.4343 65.371 28.1971 65.371 28.1971C65.355 28.2085 60.0096 31.8612 55.9137 34.9931C53.8486 36.5716 52.5762 37.8783 51.7173 39.025C51.3838 39.4727 51.1096 39.8953 50.8812 40.2997C50.8744 40.3089 50.872 40.3203 50.8652 40.3317C51.0457 40.0416 51.2924 39.7126 51.5756 39.5413C52.1513 39.1895 52.759 39.338 52.759 39.338C53.3483 36.2678 60.7292 32.0851 65.8256 28.3935L82.5226 12.7549C81.5426 12.6018 80.252 12.6018 80.252 12.6018Z" fill="url(#paint10_linear_61_845)"/>
<path opacity="0.302595" fill-rule="evenodd" clip-rule="evenodd" d="M108.49 49.4465L108.321 100.862L62.9927 127.428L63.2511 75.5994L108.49 49.4465Z" fill="#BEE9FF"/>
<path opacity="0.523411" fill-rule="evenodd" clip-rule="evenodd" d="M45.7386 0.617432L0.499512 26.7703L17.675 49.3927L63.176 23.2684L45.7386 0.617432Z" fill="url(#paint11_linear_61_845)"/>
</g>
<defs>
<linearGradient id="paint0_linear_61_845" x1="109.631" y1="124.095" x2="136.075" y2="60.6021" gradientUnits="userSpaceOnUse">
<stop stop-color="#99C1D3"/>
<stop offset="0.350953" stop-color="#D1D9DF"/>
<stop offset="0.457393" stop-color="#D9E1E4" stop-opacity="0.83221"/>
<stop offset="1" stop-color="white" stop-opacity="0.01"/>
</linearGradient>
<linearGradient id="paint1_linear_61_845" x1="84.9151" y1="96.1994" x2="93.7231" y2="96.1994" gradientUnits="userSpaceOnUse">
<stop stop-color="#CED2DE"/>
<stop offset="0.638" stop-color="#F1F2F5"/>
<stop offset="1" stop-color="white"/>
</linearGradient>
<linearGradient id="paint2_linear_61_845" x1="92.5042" y1="101.019" x2="101.847" y2="88.5626" gradientUnits="userSpaceOnUse">
<stop stop-color="#A5A9B3"/>
<stop offset="0.3531" stop-color="#CFD3DF"/>
<stop offset="1" stop-color="white" stop-opacity="0"/>
</linearGradient>
<radialGradient id="paint3_radial_61_845" cx="0" cy="0" r="1" gradientUnits="userSpaceOnUse" gradientTransform="translate(84.9025 95.0766) scale(3.13925)">
<stop offset="0.000400004" stop-color="#E95E00" stop-opacity="0.6"/>
<stop offset="0.1732" stop-color="#DB5800" stop-opacity="0.4963"/>
<stop offset="0.502" stop-color="#B54A00" stop-opacity="0.2989"/>
<stop offset="0.9494" stop-color="#783300" stop-opacity="0.0304"/>
<stop offset="1" stop-color="#713000" stop-opacity="0"/>
</radialGradient>
<linearGradient id="paint4_linear_61_845" x1="78.8108" y1="107.985" x2="81.8934" y2="99.0066" gradientUnits="userSpaceOnUse">
<stop stop-color="#A5A9B3"/>
<stop offset="0.489583" stop-color="#CFD3DF" stop-opacity="0.13"/>
<stop offset="1" stop-color="white" stop-opacity="0"/>
</linearGradient>
<linearGradient id="paint5_linear_61_845" x1="51.7316" y1="117.39" x2="63.0579" y2="107.299" gradientUnits="userSpaceOnUse">
<stop stop-color="#0D5068"/>
<stop offset="0.3244" stop-color="#00ADDF"/>
<stop offset="0.9987" stop-color="#D9FCFF" stop-opacity="0"/>
</linearGradient>
<linearGradient id="paint6_linear_61_845" x1="54.3733" y1="48.2025" x2="54.5693" y2="41.864" gradientUnits="userSpaceOnUse">
<stop stop-color="#B9816B"/>
<stop offset="1" stop-color="#C7987D"/>
</linearGradient>
<linearGradient id="paint7_linear_61_845" x1="51.2374" y1="43.4166" x2="52.381" y2="40.3128" gradientUnits="userSpaceOnUse">
<stop stop-color="#B9816B"/>
<stop offset="1" stop-color="#C7987D"/>
</linearGradient>
<linearGradient id="paint8_linear_61_845" x1="59.574" y1="52.3327" x2="61.0443" y2="46.5006" gradientUnits="userSpaceOnUse">
<stop stop-color="#C38C71"/>
<stop offset="1" stop-color="#C7987D"/>
</linearGradient>
<linearGradient id="paint9_linear_61_845" x1="62.4732" y1="68.2381" x2="78.5878" y2="57.4949" gradientUnits="userSpaceOnUse">
<stop stop-color="#A5A9B3"/>
<stop offset="0.3531" stop-color="#CFD3DF"/>
<stop offset="1" stop-color="white" stop-opacity="0"/>
</linearGradient>
<linearGradient id="paint10_linear_61_845" x1="118.698" y1="-24.1564" x2="47.5872" y2="44.5554" gradientUnits="userSpaceOnUse">
<stop stop-color="#B9816B"/>
<stop offset="1" stop-color="#C7987D"/>
</linearGradient>
<linearGradient id="paint11_linear_61_845" x1="34.104" y1="40.1548" x2="10.55" y2="14.4108" gradientUnits="userSpaceOnUse">
<stop stop-color="#E4F5FE"/>
<stop offset="1" stop-color="#EDF9FF" stop-opacity="0"/>
</linearGradient>
<clipPath id="clip0_61_845">
<rect width="150" height="128" fill="white"/>
</clipPath>
</defs>
</svg>
