<svg width="80" height="80" viewBox="0 0 80 80" fill="none" xmlns="http://www.w3.org/2000/svg">
<g opacity="0.6">
<path d="M55.0804 64.9198C50.1518 67.9024 44.4494 69.3565 38.6943 69.0983C32.9393 68.84 27.39 66.881 22.7483 63.469C18.1066 60.0569 14.581 55.3451 12.6172 49.9292C10.6534 44.5134 10.3397 38.6369 11.7157 33.0428L40 40.0002L55.0804 64.9198Z" fill="#8A94F5"/>
<path d="M44.927 11.2929C48.006 11.8213 50.98 12.8417 53.7349 14.3148L39.9997 40.0005L44.927 11.2929Z" fill="#E0E2F1"/>
<path d="M41.1241 10.8948C42.3886 10.9436 43.6485 11.0748 44.896 11.2876L39.9997 40.0005L41.1241 10.8948Z" fill="#E0E2F1"/>
<path d="M38.3338 10.9208C39.2865 10.8662 40.2414 10.8585 41.1949 10.8976L39.9997 40.0005L38.3338 10.9208Z" fill="#E0E2F1"/>
<path d="M11.68 33.1891C13.1545 27.0583 16.5788 21.5715 21.4383 17.5533C26.2978 13.535 32.33 11.2022 38.6286 10.9054L39.9997 40.0005L11.68 33.1891Z" fill="#6977FE"/>
<path d="M53.7925 14.3457C60.5965 18.0038 65.6688 24.2149 67.8933 31.6128L39.9997 40.0005L53.7925 14.3457Z" fill="#C7CCFF"/>
<path d="M67.7952 31.2933C69.7562 37.553 69.5467 44.2914 67.2008 50.4173C64.8548 56.5431 60.5098 61.6978 54.8692 65.0465L39.9997 40.0005L67.7952 31.2933Z" fill="#C7CCFF"/>
</g>
<path d="M37.7522 51V30.3101L40.0152 32.5731H33.2263V28.3705H42.9893V51H37.7522Z" fill="#252B42"/>
</svg>
