<svg width="80" height="80" viewBox="0 0 80 80" fill="none" xmlns="http://www.w3.org/2000/svg">
<g opacity="0.6">
<path d="M55.0804 64.9198C50.1518 67.9024 44.4494 69.3565 38.6943 69.0983C32.9393 68.84 27.39 66.881 22.7483 63.469C18.1066 60.0569 14.581 55.3451 12.6172 49.9292C10.6534 44.5134 10.3397 38.6369 11.7157 33.0428L40 40.0002L55.0804 64.9198Z" fill="#8A94F5"/>
<path d="M44.927 11.2929C48.006 11.8213 50.98 12.8417 53.7349 14.3148L39.9997 40.0005L44.927 11.2929Z" fill="#E0E2F1"/>
<path d="M41.1241 10.8948C42.3886 10.9436 43.6485 11.0748 44.896 11.2876L39.9997 40.0005L41.1241 10.8948Z" fill="#E0E2F1"/>
<path d="M38.3338 10.9208C39.2865 10.8662 40.2414 10.8585 41.1949 10.8976L39.9997 40.0005L38.3338 10.9208Z" fill="#E0E2F1"/>
<path d="M11.68 33.1891C13.1545 27.0583 16.5788 21.5715 21.4383 17.5533C26.2978 13.535 32.33 11.2022 38.6286 10.9054L39.9997 40.0005L11.68 33.1891Z" fill="#6977FE"/>
<path d="M53.7925 14.3457C60.5965 18.0038 65.6688 24.2149 67.8933 31.6128L39.9997 40.0005L53.7925 14.3457Z" fill="#C7CCFF"/>
<path d="M67.7952 31.2933C69.7562 37.553 69.5467 44.2914 67.2008 50.4173C64.8548 56.5431 60.5098 61.6978 54.8692 65.0465L39.9997 40.0005L67.7952 31.2933Z" fill="#C7CCFF"/>
</g>
<path d="M38.512 51.384C36.9547 51.384 35.408 51.1813 33.872 50.776C32.336 50.3493 31.0347 49.752 29.968 48.984L31.984 45.016C32.8373 45.6347 33.8293 46.1253 34.96 46.488C36.0907 46.8507 37.232 47.032 38.384 47.032C39.6853 47.032 40.7093 46.776 41.456 46.264C42.2027 45.752 42.576 45.048 42.576 44.152C42.576 43.2987 42.2453 42.6267 41.584 42.136C40.9227 41.6453 39.856 41.4 38.384 41.4H36.016V37.976L42.256 30.904L42.832 32.76H31.088V28.6H46.768V31.96L40.56 39.032L37.936 37.528H39.44C42.192 37.528 44.272 38.1467 45.68 39.384C47.088 40.6213 47.792 42.2107 47.792 44.152C47.792 45.4107 47.4613 46.5947 46.8 47.704C46.1387 48.792 45.1253 49.6773 43.76 50.36C42.3947 51.0427 40.6453 51.384 38.512 51.384Z" fill="#252B42"/>
</svg>
