<svg xmlns="http://www.w3.org/2000/svg" width="150" height="85" viewBox="0 0 150 85">
  <g id="Group_9" data-name="Group 9" transform="translate(0 -0.5)">
    <rect id="Rectangle_6" data-name="Rectangle 6" width="149.8" height="84.8" rx="4.9" transform="translate(0.1 0.6)" fill="#fff" stroke="#1c1c22" stroke-width="0.2"/>
    <path id="Path_63" data-name="Path 63" d="M86.63,47.172a20,20,0,1,0-23.511-.183l.475-.644a19.2,19.2,0,1,1,22.57.175Z" fill="none" stroke="#8eda5f" stroke-linecap="round" stroke-linejoin="round" stroke-width="8"/>
    <path id="Path_64" data-name="Path 64" d="M61.117,28.156c6.361.374,16.7.832,16.7.832a5.523,5.523,0,0,1-3.089,9.929l-2.2.094Z" fill="#8eda5f"/>
    <path id="Path_65" data-name="Path 65" d="M22.584,77.8V64.392h1.44v12.06h5.94V77.8Zm13.882.216a4.856,4.856,0,0,1-2.484-.648,5.023,5.023,0,0,1-1.782-1.8,5.231,5.231,0,0,1-.648-2.61,5.1,5.1,0,0,1,.648-2.574,5.007,5.007,0,0,1,6.768-1.8,4.614,4.614,0,0,1,1.746,1.782,5.513,5.513,0,0,1-.018,5.22,4.881,4.881,0,0,1-1.782,1.782A4.726,4.726,0,0,1,36.466,78.018Zm0-1.35a3.215,3.215,0,0,0,1.746-.486,3.408,3.408,0,0,0,1.242-1.332,3.838,3.838,0,0,0,.468-1.89,3.737,3.737,0,0,0-.468-1.872,3.441,3.441,0,0,0-1.242-1.314,3.215,3.215,0,0,0-1.746-.486,3.306,3.306,0,0,0-1.764.486,3.631,3.631,0,0,0-1.242,1.314,3.737,3.737,0,0,0-.468,1.872,3.838,3.838,0,0,0,.468,1.89A3.592,3.592,0,0,0,34.7,76.182,3.306,3.306,0,0,0,36.466,76.668ZM45.692,77.8,42.38,68.154h1.53L46.646,76.6h-.54l2.574-8.442h1.35L52.6,76.6h-.54l2.754-8.442H56.33L53.018,77.8h-1.35l-2.5-8.262h.378l-2.5,8.262Zm19,0-4.914-13.41h1.494L65.6,76.524h-.288l4.3-12.132h1.512L66.208,77.8Zm11.638.216a4.856,4.856,0,0,1-2.484-.648,5.023,5.023,0,0,1-1.782-1.8,5.231,5.231,0,0,1-.648-2.61,5.1,5.1,0,0,1,.648-2.574,5.007,5.007,0,0,1,6.768-1.8,4.614,4.614,0,0,1,1.746,1.782,5.513,5.513,0,0,1-.018,5.22,4.88,4.88,0,0,1-1.782,1.782A4.726,4.726,0,0,1,76.334,78.018Zm0-1.35a3.215,3.215,0,0,0,1.746-.486,3.408,3.408,0,0,0,1.242-1.332,3.838,3.838,0,0,0,.468-1.89,3.737,3.737,0,0,0-.468-1.872,3.441,3.441,0,0,0-1.242-1.314,3.215,3.215,0,0,0-1.746-.486,3.306,3.306,0,0,0-1.764.486,3.631,3.631,0,0,0-1.242,1.314,3.737,3.737,0,0,0-.468,1.872,3.838,3.838,0,0,0,.468,1.89,3.592,3.592,0,0,0,1.242,1.332A3.306,3.306,0,0,0,76.334,76.668ZM83.611,77.8V64.176h1.35V77.8Zm7.8.108a2.592,2.592,0,0,1-2-.756,3.059,3.059,0,0,1-.7-2.16V69.5H86.932v-1.35h.45a1.249,1.249,0,0,0,.972-.4,1.508,1.508,0,0,0,.36-1.026v-.81h1.35v2.232h2.124V69.5H90.064v5.49a2.415,2.415,0,0,0,.144.864,1.193,1.193,0,0,0,.486.576,1.841,1.841,0,0,0,.954.216q.144,0,.342-.018t.342-.036V77.8a2.772,2.772,0,0,1-.486.072A3.44,3.44,0,0,1,91.414,77.91Zm5.9.108a3.773,3.773,0,0,1-1.638-.342,2.9,2.9,0,0,1-1.134-.972,2.446,2.446,0,0,1-.414-1.4,2.878,2.878,0,0,1,.324-1.368,2.744,2.744,0,0,1,1.008-1.062,4.737,4.737,0,0,1,1.746-.612l3.78-.63v1.224l-3.456.576a2.691,2.691,0,0,0-1.512.666,1.639,1.639,0,0,0-.45,1.152,1.417,1.417,0,0,0,.5,1.1,1.967,1.967,0,0,0,1.332.45,3.474,3.474,0,0,0,1.728-.414,3.122,3.122,0,0,0,1.152-1.152,3.156,3.156,0,0,0,.414-1.6V71.178a1.762,1.762,0,0,0-.63-1.4,2.43,2.43,0,0,0-1.638-.54,2.7,2.7,0,0,0-1.548.45,2.658,2.658,0,0,0-.99,1.134l-1.224-.666a3.207,3.207,0,0,1,.846-1.116,4.6,4.6,0,0,1,1.35-.792,4.136,4.136,0,0,1,1.566-.306,4.061,4.061,0,0,1,1.872.414,3.059,3.059,0,0,1,1.278,1.152,3,3,0,0,1,.468,1.674V77.8H100.7V75.876l.2.2a2.889,2.889,0,0,1-.792.99,4.3,4.3,0,0,1-1.242.7A4.553,4.553,0,0,1,97.317,78.018Zm7.51-.216V64.176h1.35V77.8Zm4.114,0V68.154h1.35V77.8Zm0-11.43v-1.98h1.35v1.98Zm7.8,11.538a2.592,2.592,0,0,1-2-.756,3.059,3.059,0,0,1-.7-2.16V69.5h-1.782v-1.35h.45a1.249,1.249,0,0,0,.972-.4,1.508,1.508,0,0,0,.36-1.026v-.81h1.35v2.232h2.124V69.5h-2.124v5.49a2.415,2.415,0,0,0,.144.864,1.193,1.193,0,0,0,.486.576,1.841,1.841,0,0,0,.954.216q.144,0,.342-.018t.342-.036V77.8a2.772,2.772,0,0,1-.486.072A3.44,3.44,0,0,1,116.744,77.91Zm3.486,3.852a3.417,3.417,0,0,1-.594-.054,2.531,2.531,0,0,1-.576-.144V80.3q.18.018.45.054a3.12,3.12,0,0,0,.576.054,2.1,2.1,0,0,0,1.35-.378,3.563,3.563,0,0,0,.918-1.4l.612-1.44-.036,1.188-4.086-10.224H120.3L123.65,76.6h-.378l3.33-8.442H128.1l-4.41,10.872a6.587,6.587,0,0,1-.738,1.332,3.273,3.273,0,0,1-1.1,1.008A3.117,3.117,0,0,1,120.23,81.762Z" fill="#5a5b67"/>
  </g>
</svg>
