<svg id="Group_14" data-name="Group 14" xmlns="http://www.w3.org/2000/svg" xmlns:xlink="http://www.w3.org/1999/xlink" width="32" height="32" viewBox="0 0 32 32">
  <defs>
    <clipPath id="clip-path">
      <rect id="Rectangle_8" data-name="Rectangle 8" width="19.2" height="19.196" transform="translate(6.4 5.619)" fill="#fff"/>
    </clipPath>
  </defs>
  <circle id="Ellipse_6" data-name="Ellipse 6" cx="16" cy="16" r="16" fill="#eff1ff"/>
  <g id="Group_13" data-name="Group 13" clip-path="url(#clip-path)">
    <path id="Path_75" data-name="Path 75" d="M24.8,8.019a8.721,8.721,0,0,1-2.512,1.224A3.584,3.584,0,0,0,16,11.642v.8A8.529,8.529,0,0,1,8.8,8.819s-3.2,7.2,4,10.4a9.313,9.313,0,0,1-5.6,1.6c7.2,4,16,0,16-9.2a3.6,3.6,0,0,0-.064-.664A6.174,6.174,0,0,0,24.8,8.019Z" fill="none" stroke="#3d4eef" stroke-linecap="round" stroke-linejoin="round" stroke-width="1"/>
  </g>
</svg>
