<svg width="57" height="56" viewBox="0 0 57 56" fill="none" xmlns="http://www.w3.org/2000/svg">
<path d="M40.1296 44.172C43.5657 41.716 46.1361 38.2353 47.4724 34.2286C48.8087 30.222 48.8423 25.8952 47.5683 21.8683C46.2944 17.8415 43.7783 14.3213 40.3807 11.8122C36.9831 9.30324 32.8785 7.93425 28.655 7.90147C24.4316 7.86869 20.3061 9.17381 16.87 11.6298C13.4339 14.0857 10.8635 17.5665 9.52721 21.5731C8.19091 25.5797 8.15733 29.9065 9.43128 33.9334C10.7052 37.9603 13.2213 41.4805 16.6189 43.9895L17.0941 43.3459C13.8324 40.9373 11.417 37.5579 10.194 33.6921C8.97103 29.8263 9.00327 25.6726 10.2861 21.8262C11.569 17.9798 14.0365 14.6383 17.3352 12.2806C20.6339 9.92289 24.5943 8.66998 28.6488 8.70144C32.7033 8.73291 36.6438 10.0471 39.9055 12.4558C43.1672 14.8644 45.5826 18.2438 46.8056 22.1096C48.0286 25.9754 47.9963 30.1292 46.7135 33.9755C45.4306 37.8219 42.9631 41.1634 39.6644 43.5211L40.1296 44.172Z" stroke="url(#paint0_linear_61_2246)" stroke-width="8" stroke-linecap="round" stroke-linejoin="round"/>
<path d="M31.3119 15.0265C32.1581 21.3426 33.6811 31.5814 33.6811 31.5814C31.4081 36.2389 24.5505 35.4836 23.3456 30.4431L22.8344 28.3047L31.3119 15.0265Z" fill="url(#paint1_linear_61_2246)"/>
<defs>
<linearGradient id="paint0_linear_61_2246" x1="28.5989" y1="67.6" x2="28.5989" y2="-5" gradientUnits="userSpaceOnUse">
<stop stop-color="#E9B744" stop-opacity="0.21"/>
<stop offset="0.987361" stop-color="#FBBA22"/>
</linearGradient>
<linearGradient id="paint1_linear_61_2246" x1="26.7564" y1="32.7024" x2="33.4574" y2="11.8014" gradientUnits="userSpaceOnUse">
<stop stop-color="#F9C03B"/>
<stop offset="1" stop-color="#F8DFA6"/>
</linearGradient>
</defs>
</svg>
