<svg width="56" height="56" viewBox="0 0 56 56" fill="none" xmlns="http://www.w3.org/2000/svg">
<path d="M39.6296 44.172C43.0657 41.716 45.6361 38.2353 46.9724 34.2286C48.3087 30.222 48.3423 25.8952 47.0683 21.8683C45.7944 17.8415 43.2783 14.3213 39.8807 11.8122C36.4831 9.30324 32.3785 7.93425 28.155 7.90147C23.9316 7.86869 19.8061 9.17381 16.37 11.6298C12.9339 14.0857 10.3635 17.5665 9.02721 21.5731C7.69091 25.5797 7.65733 29.9065 8.93128 33.9334C10.2052 37.9603 12.7213 41.4805 16.1189 43.9895L16.5941 43.3459C13.3324 40.9373 10.917 37.5579 9.69402 33.6921C8.47103 29.8263 8.50327 25.6726 9.78611 21.8262C11.069 17.9798 13.5365 14.6383 16.8352 12.2806C20.1339 9.92289 24.0943 8.66998 28.1488 8.70144C32.2033 8.73291 36.1438 10.0471 39.4055 12.4558C42.6672 14.8644 45.0826 18.2438 46.3056 22.1096C47.5286 25.9754 47.4963 30.1292 46.2135 33.9755C44.9306 37.8219 42.4631 41.1634 39.1644 43.5211L39.6296 44.172Z" stroke="url(#paint0_linear_61_2251)" stroke-width="8" stroke-linecap="round" stroke-linejoin="round"/>
<path d="M43.3212 25.8411C37.9437 29.2604 29.2898 34.9405 29.2898 34.9405C24.1084 34.8323 21.9155 28.2911 25.9847 25.0817L27.711 23.7202L43.3212 25.8411Z" fill="url(#paint1_linear_61_2251)"/>
<defs>
<linearGradient id="paint0_linear_61_2251" x1="28.0989" y1="67.6" x2="28.0989" y2="-5" gradientUnits="userSpaceOnUse">
<stop stop-color="#DD313C" stop-opacity="0.16"/>
<stop offset="0.987361" stop-color="#DC2C39"/>
</linearGradient>
<linearGradient id="paint1_linear_61_2251" x1="21.0991" y1="30" x2="47.1271" y2="26.3387" gradientUnits="userSpaceOnUse">
<stop stop-color="#DF414D"/>
<stop offset="1" stop-color="#F0A7AC"/>
</linearGradient>
</defs>
</svg>
